<svg width="50" height="51" viewBox="0 0 50 51" fill="none" xmlns="http://www.w3.org/2000/svg">
<g clip-path="url(#clip0_7928_223)">
<path d="M30.1487 27.5646C30.4939 27.2713 30.7712 26.9063 30.9614 26.495C31.1515 26.084 31.25 25.6363 31.25 25.1833C31.25 24.7302 31.1515 24.2827 30.9614 23.8715C30.7712 23.4602 30.4939 23.0954 30.1487 22.8021L6.71119 2.4812C6.25661 2.0945 5.70098 1.84602 5.10973 1.76515C4.51848 1.68429 3.9164 1.77441 3.37473 2.02486C2.83306 2.27533 2.37431 2.67564 2.05306 3.17849C1.7316 3.68132 1.56098 4.26568 1.56119 4.86245V45.4875C1.56098 46.0842 1.7316 46.6686 2.05306 47.1715C2.37431 47.6742 2.83306 48.0746 3.37473 48.325C3.9164 48.5754 4.51848 48.6656 5.10973 48.5848C5.70098 48.504 6.25661 48.2554 6.71119 47.8688L30.1487 27.5646Z" stroke="#F16530" stroke-width="1.5" stroke-linecap="round" stroke-linejoin="round"/>
<path d="M18.7508 43.9393V45.5018C18.7506 46.0984 18.9212 46.6828 19.2426 47.1857C19.5639 47.6887 20.0226 48.0889 20.5643 48.3393C21.106 48.5897 21.7081 48.6799 22.2993 48.5991C22.8906 48.5182 23.4462 48.2697 23.9008 47.883L47.3362 27.5643C47.6814 27.2709 47.9587 26.9059 48.1488 26.4947C48.339 26.0837 48.4375 25.6359 48.4375 25.183C48.4375 24.7299 48.339 24.2824 48.1488 23.8712C47.9587 23.4601 47.6814 23.0951 47.3362 22.8018L23.8987 2.48091C23.4435 2.09438 22.8872 1.84634 22.2956 1.76612C21.7039 1.68591 21.1016 1.77688 20.5599 2.02828C20.0185 2.27968 19.5601 2.68097 19.2395 3.18468C18.9189 3.68838 18.7493 4.27341 18.7508 4.87049V6.43924" stroke="#F16530" stroke-width="1.5" stroke-linecap="round" stroke-linejoin="round"/>
</g>
<defs>
<clipPath id="clip0_7928_223">
<rect width="50" height="50" fill="white" transform="matrix(-1 0 0 1 50 0.189453)"/>
</clipPath>
</defs>
</svg>
