<svg xmlns="http://www.w3.org/2000/svg" xmlns:xlink="http://www.w3.org/1999/xlink" width="500" zoomAndPan="magnify" viewBox="0 0 375 374.999991" height="500" preserveAspectRatio="xMidYMid meet" version="1.0">
	<defs>
		<clipPath id="514c7b663d">
			<path d="M 318 79 L 370.589844 79 L 370.589844 300 L 318 300 Z M 318 79 " clip-rule="nonzero" />
		</clipPath>
		<clipPath id="5fa21556d8">
			<path d="M 4.589844 34 L 323 34 L 323 337.617188 L 4.589844 337.617188 Z M 4.589844 34 " clip-rule="nonzero" />
		</clipPath>
	</defs>
	<path fill="white" d="M 275.910156 116.542969 C 273.113281 118.632812 272.53125 122.589844 274.617188 125.390625 C 290.617188 146.878906 298.734375 167.554688 298.738281 186.691406 C 298.285156 206.003906 290.433594 225.726562 275.394531 245.316406 C 273.269531 248.085938 273.792969 252.054688 276.5625 254.183594 C 277.710938 255.0625 279.0625 255.488281 280.40625 255.488281 C 282.304688 255.488281 284.179688 254.636719 285.425781 253.015625 C 302.132812 231.253906 310.863281 209.035156 311.378906 186.839844 C 311.378906 164.777344 302.421875 141.5625 284.761719 117.84375 C 282.675781 115.042969 278.714844 114.460938 275.910156 116.542969 Z M 275.910156 116.542969 " fill-opacity="1" fill-rule="nonzero" />
	<g clip-path="url(#514c7b663d)">
		<path fill="white" d="M 329.09375 80.910156 C 326.625 78.441406 322.625 78.441406 320.152344 80.910156 C 317.683594 83.378906 317.683594 87.378906 320.152344 89.847656 C 344.4375 114.128906 356.984375 144.835938 357.441406 181.125 C 357.90625 217.730469 345.140625 254.25 319.5 289.667969 C 317.453125 292.496094 318.089844 296.449219 320.917969 298.496094 C 322.039062 299.308594 323.332031 299.695312 324.617188 299.695312 C 326.578125 299.695312 328.511719 298.789062 329.746094 297.082031 C 357.011719 259.414062 370.585938 220.347656 370.085938 180.964844 C 369.585938 141.265625 355.792969 107.601562 329.09375 80.910156 Z M 329.09375 80.910156 " fill-opacity="1" fill-rule="nonzero" />
	</g>
	<g clip-path="url(#5fa21556d8)">
		<path fill="white" d="M 320.867188 52.242188 C 318.488281 49.859375 314.632812 49.859375 312.253906 52.242188 L 215.839844 148.644531 L 215.570312 44.070312 C 215.570312 41.453125 213.882812 39.320312 212.488281 37.878906 C 210.78125 35.472656 208.761719 34.253906 206.480469 34.253906 C 203.449219 34.253906 200.871094 35.476562 199.152344 37.710938 L 102.792969 120.5 L 15.128906 120.5 C 12.878906 120.5 10.671875 121.210938 8.554688 122.621094 L 7.9375 123.125 C 5.746094 125.320312 4.589844 128.054688 4.589844 131.039062 L 4.589844 242.644531 C 4.589844 245.75 5.867188 248.375 8.203125 250.09375 C 10.355469 252.144531 12.683594 253.183594 15.128906 253.183594 L 102.808594 253.183594 L 107.40625 257.0625 L 53.804688 310.65625 C 51.425781 313.035156 51.425781 316.894531 53.804688 319.269531 C 54.996094 320.460938 56.554688 321.054688 58.113281 321.054688 C 59.671875 321.054688 61.230469 320.460938 62.417969 319.269531 L 116.746094 264.949219 L 199.539062 334.855469 L 199.898438 335.128906 C 202.015625 336.539062 204.472656 337.253906 207.203125 337.253906 C 209.996094 337.253906 212.230469 335.34375 213.667969 333.902344 L 214.167969 333.292969 C 215.578125 331.179688 216.292969 328.722656 216.292969 325.980469 L 215.882812 165.824219 L 320.867188 60.851562 C 323.25 58.476562 323.25 54.617188 320.867188 52.242188 Z M 105.75 245.152344 L 15.128906 245.152344 C 14.9375 245.152344 14.40625 244.941406 13.621094 244.152344 L 13.011719 243.652344 C 12.8125 243.519531 12.621094 243.394531 12.621094 242.644531 L 12.621094 131.039062 C 12.621094 130.289062 12.847656 129.691406 13.359375 129.089844 C 14 128.714844 14.582031 128.53125 15.128906 128.53125 L 105.769531 128.53125 L 204.75 43.492188 L 205.472656 42.675781 C 205.550781 42.558594 205.628906 42.449219 205.824219 42.375 C 205.886719 42.457031 205.960938 42.554688 206.039062 42.675781 L 206.542969 43.289062 C 207.136719 43.882812 207.417969 44.269531 207.539062 44.464844 L 207.828125 156.65625 L 113.109375 251.363281 Z M 208.261719 325.988281 C 208.261719 326.976562 208.070312 327.808594 207.675781 328.527344 C 207.269531 328.90625 206.988281 329.109375 206.832031 329.210938 C 205.941406 329.164062 205.179688 328.945312 204.519531 328.546875 L 122.449219 259.25 L 207.871094 173.839844 Z M 208.261719 325.988281 " fill-opacity="1" fill-rule="nonzero" />
	</g>
</svg>
