<svg xmlns="http://www.w3.org/2000/svg" xmlns:xlink="http://www.w3.org/1999/xlink" width="500" zoomAndPan="magnify" viewBox="0 0 375 374.999991" height="500" preserveAspectRatio="xMidYMid meet" version="1.0">
	<defs>
		<clipPath id="7b3fbdebea">
			<path d="M 0 26 L 191 26 L 191 337.382812 L 0 337.382812 Z M 0 26 " clip-rule="nonzero" />
		</clipPath>
	</defs>
	<g clip-path="url(#7b3fbdebea)">
		<path fill="white" d="M 162.902344 26.269531 C 160.910156 26.171875 158.933594 26.273438 156.96875 26.582031 C 155 26.890625 153.085938 27.398438 151.222656 28.101562 C 149.363281 28.808594 147.59375 29.695312 145.914062 30.765625 C 144.238281 31.835938 142.6875 33.066406 141.265625 34.457031 L 64.714844 108.144531 L 24.0625 108.144531 C 23.246094 108.132812 22.429688 108.160156 21.613281 108.230469 C 20.800781 108.300781 19.988281 108.40625 19.183594 108.554688 C 18.378906 108.703125 17.585938 108.890625 16.800781 109.117188 C 16.011719 109.34375 15.238281 109.605469 14.480469 109.90625 C 13.71875 110.210938 12.976562 110.546875 12.246094 110.921875 C 11.519531 111.296875 10.8125 111.703125 10.125 112.148438 C 9.4375 112.589844 8.773438 113.066406 8.132812 113.574219 C 7.492188 114.082031 6.878906 114.621094 6.292969 115.191406 C 5.703125 115.757812 5.144531 116.355469 4.613281 116.976562 C 4.085938 117.601562 3.585938 118.246094 3.121094 118.917969 C 2.65625 119.589844 2.222656 120.285156 1.824219 120.996094 C 1.425781 121.710938 1.066406 122.441406 0.738281 123.191406 C 0.410156 123.941406 0.121094 124.703125 -0.128906 125.480469 C -0.382812 126.261719 -0.59375 127.046875 -0.769531 127.847656 C -0.945312 128.644531 -1.078125 129.449219 -1.175781 130.261719 C -1.269531 131.074219 -1.328125 131.886719 -1.34375 132.703125 L -1.34375 230.949219 C -1.328125 231.765625 -1.269531 232.582031 -1.175781 233.394531 C -1.078125 234.207031 -0.945312 235.011719 -0.769531 235.808594 C -0.59375 236.605469 -0.382812 237.394531 -0.128906 238.171875 C 0.121094 238.949219 0.410156 239.714844 0.738281 240.460938 C 1.066406 241.210938 1.425781 241.945312 1.824219 242.65625 C 2.222656 243.371094 2.65625 244.0625 3.121094 244.734375 C 3.585938 245.40625 4.085938 246.054688 4.613281 246.675781 C 5.144531 247.300781 5.703125 247.894531 6.292969 248.464844 C 6.878906 249.03125 7.492188 249.570312 8.132812 250.078125 C 8.773438 250.585938 9.4375 251.0625 10.125 251.507812 C 10.8125 251.949219 11.519531 252.359375 12.246094 252.734375 C 12.976562 253.105469 13.71875 253.445312 14.480469 253.746094 C 15.238281 254.046875 16.011719 254.3125 16.800781 254.539062 C 17.585938 254.765625 18.378906 254.949219 19.183594 255.097656 C 19.988281 255.246094 20.800781 255.355469 21.613281 255.425781 C 22.429688 255.492188 23.246094 255.523438 24.0625 255.511719 L 64.714844 255.511719 L 140.9375 328.214844 C 142.339844 329.707031 143.886719 331.035156 145.570312 332.203125 C 147.257812 333.371094 149.046875 334.347656 150.9375 335.136719 C 152.832031 335.929688 154.785156 336.511719 156.800781 336.890625 C 158.816406 337.269531 160.851562 337.433594 162.902344 337.382812 C 163.761719 337.433594 164.621094 337.441406 165.484375 337.410156 C 166.34375 337.375 167.203125 337.300781 168.054688 337.183594 C 168.910156 337.066406 169.753906 336.90625 170.59375 336.707031 C 171.433594 336.507812 172.257812 336.269531 173.074219 335.988281 C 173.886719 335.710938 174.6875 335.390625 175.472656 335.035156 C 176.257812 334.675781 177.019531 334.28125 177.765625 333.847656 C 178.511719 333.417969 179.234375 332.949219 179.933594 332.449219 C 180.632812 331.945312 181.308594 331.410156 181.957031 330.84375 C 182.605469 330.277344 183.222656 329.679688 183.8125 329.050781 C 184.402344 328.421875 184.960938 327.765625 185.484375 327.085938 C 186.011719 326.402344 186.503906 325.695312 186.960938 324.96875 C 187.417969 324.238281 187.835938 323.488281 188.21875 322.714844 C 188.605469 321.945312 188.949219 321.15625 189.257812 320.351562 C 189.5625 319.550781 189.832031 318.730469 190.058594 317.902344 C 190.285156 317.070312 190.472656 316.230469 190.617188 315.382812 C 190.761719 314.535156 190.867188 313.679688 190.929688 312.820312 L 190.929688 50.832031 C 190.867188 49.972656 190.761719 49.121094 190.617188 48.273438 C 190.472656 47.421875 190.285156 46.582031 190.058594 45.753906 C 189.832031 44.921875 189.5625 44.105469 189.257812 43.300781 C 188.949219 42.496094 188.605469 41.710938 188.21875 40.9375 C 187.835938 40.167969 187.417969 39.417969 186.960938 38.6875 C 186.503906 37.957031 186.011719 37.25 185.484375 36.570312 C 184.960938 35.886719 184.402344 35.230469 183.8125 34.605469 C 183.222656 33.976562 182.605469 33.378906 181.957031 32.8125 C 181.308594 32.242188 180.632812 31.707031 179.933594 31.207031 C 179.234375 30.703125 178.511719 30.238281 177.765625 29.804688 C 177.019531 29.375 176.257812 28.980469 175.472656 28.621094 C 174.6875 28.265625 173.886719 27.945312 173.074219 27.664062 C 172.257812 27.386719 171.433594 27.144531 170.59375 26.945312 C 169.753906 26.746094 168.910156 26.589844 168.054688 26.472656 C 167.203125 26.355469 166.34375 26.28125 165.484375 26.246094 C 164.621094 26.210938 163.761719 26.222656 162.902344 26.269531 Z M 174.539062 312.820312 C 174.539062 320.027344 159.457031 324.121094 152.574219 316.753906 L 70.617188 239.136719 L 24.0625 239.136719 C 23.5 239.160156 22.941406 239.128906 22.382812 239.039062 C 21.824219 238.953125 21.28125 238.8125 20.75 238.621094 C 20.21875 238.425781 19.714844 238.183594 19.230469 237.894531 C 18.746094 237.601562 18.296875 237.265625 17.878906 236.886719 C 17.460938 236.507812 17.085938 236.09375 16.75 235.640625 C 16.410156 235.1875 16.121094 234.707031 15.878906 234.195312 C 15.636719 233.6875 15.445312 233.160156 15.304688 232.613281 C 15.167969 232.066406 15.082031 231.511719 15.050781 230.949219 L 15.050781 132.703125 C 15.082031 132.140625 15.167969 131.585938 15.304688 131.039062 C 15.445312 130.496094 15.636719 129.964844 15.878906 129.457031 C 16.121094 128.949219 16.410156 128.46875 16.75 128.015625 C 17.085938 127.5625 17.460938 127.148438 17.878906 126.765625 C 18.296875 126.386719 18.746094 126.054688 19.230469 125.761719 C 19.714844 125.46875 20.21875 125.226562 20.75 125.035156 C 21.28125 124.839844 21.824219 124.703125 22.382812 124.613281 C 22.941406 124.527344 23.5 124.496094 24.0625 124.515625 L 71.273438 124.515625 L 153.230469 46.574219 C 154.511719 45.25 156.011719 44.246094 157.726562 43.558594 C 159.441406 42.875 161.21875 42.570312 163.0625 42.644531 C 169.292969 42.644531 174.703125 46.410156 174.703125 50.832031 Z M 174.539062 312.820312 " fill-opacity="1" fill-rule="nonzero" />
	</g>
	<path fill="white" d="M 234.367188 129.429688 C 233.917969 129.734375 233.503906 130.078125 233.121094 130.464844 C 232.742188 130.851562 232.402344 131.269531 232.105469 131.726562 C 231.804688 132.179688 231.554688 132.65625 231.355469 133.160156 C 231.152344 133.664062 231 134.183594 230.902344 134.714844 C 230.804688 135.25 230.757812 135.785156 230.765625 136.328125 C 230.773438 136.871094 230.835938 137.40625 230.949219 137.9375 C 231.0625 138.46875 231.230469 138.980469 231.445312 139.476562 C 231.664062 139.976562 231.925781 140.445312 232.238281 140.890625 C 233.242188 142.394531 234.191406 143.933594 235.085938 145.507812 C 235.976562 147.082031 236.8125 148.6875 237.585938 150.324219 C 238.359375 151.960938 239.074219 153.621094 239.726562 155.308594 C 240.375 156.996094 240.964844 158.707031 241.492188 160.4375 C 242.015625 162.167969 242.476562 163.917969 242.875 165.683594 C 243.273438 167.449219 243.601562 169.226562 243.867188 171.015625 C 244.132812 172.804688 244.332031 174.601562 244.46875 176.40625 C 244.601562 178.210938 244.667969 180.019531 244.667969 181.828125 C 244.667969 183.636719 244.601562 185.445312 244.46875 187.246094 C 244.332031 189.050781 244.132812 190.847656 243.867188 192.640625 C 243.601562 194.429688 243.273438 196.207031 242.875 197.972656 C 242.476562 199.738281 242.015625 201.484375 241.492188 203.214844 C 240.964844 204.949219 240.375 206.65625 239.726562 208.34375 C 239.074219 210.035156 238.359375 211.695312 237.585938 213.332031 C 236.8125 214.964844 235.976562 216.570312 235.085938 218.144531 C 234.191406 219.71875 233.242188 221.257812 232.238281 222.761719 C 231.855469 223.199219 231.523438 223.667969 231.242188 224.175781 C 230.960938 224.679688 230.738281 225.210938 230.570312 225.765625 C 230.402344 226.316406 230.292969 226.882812 230.242188 227.460938 C 230.195312 228.035156 230.207031 228.609375 230.28125 229.183594 C 230.355469 229.757812 230.488281 230.316406 230.679688 230.863281 C 230.871094 231.410156 231.117188 231.929688 231.421875 232.421875 C 231.722656 232.914062 232.074219 233.371094 232.472656 233.789062 C 232.871094 234.210938 233.308594 234.582031 233.789062 234.910156 C 234.265625 235.234375 234.773438 235.507812 235.308594 235.726562 C 235.84375 235.945312 236.398438 236.105469 236.96875 236.207031 C 237.539062 236.308594 238.113281 236.351562 238.691406 236.332031 C 239.269531 236.308594 239.839844 236.230469 240.402344 236.089844 C 240.964844 235.949219 241.503906 235.75 242.023438 235.496094 C 242.542969 235.242188 243.03125 234.933594 243.484375 234.574219 C 243.941406 234.21875 244.351562 233.816406 244.722656 233.371094 C 245.089844 232.925781 245.410156 232.445312 245.675781 231.933594 C 248.167969 228.257812 250.371094 224.417969 252.285156 220.410156 C 254.195312 216.40625 255.796875 212.277344 257.089844 208.03125 C 258.382812 203.785156 259.351562 199.464844 259.992188 195.074219 C 260.632812 190.679688 260.945312 186.265625 260.921875 181.828125 C 260.929688 177.410156 260.609375 173.015625 259.96875 168.640625 C 259.324219 164.269531 258.363281 159.96875 257.085938 155.738281 C 255.808594 151.507812 254.230469 147.394531 252.34375 143.398438 C 250.460938 139.402344 248.292969 135.5625 245.839844 131.886719 C 245.542969 131.433594 245.203125 131.011719 244.820312 130.625 C 244.441406 130.234375 244.027344 129.890625 243.578125 129.582031 C 243.128906 129.277344 242.65625 129.015625 242.15625 128.800781 C 241.65625 128.585938 241.140625 128.421875 240.609375 128.308594 C 240.078125 128.195312 239.539062 128.132812 238.996094 128.125 C 238.453125 128.117188 237.914062 128.160156 237.378906 128.253906 C 236.84375 128.351562 236.320312 128.496094 235.816406 128.695312 C 235.308594 128.894531 234.824219 129.136719 234.367188 129.429688 Z M 234.367188 129.429688 " fill-opacity="1" fill-rule="nonzero" />
	<path fill="white" d="M 282.066406 98.480469 C 281.738281 98.058594 281.371094 97.675781 280.96875 97.324219 C 280.5625 96.972656 280.128906 96.664062 279.667969 96.394531 C 279.203125 96.125 278.71875 95.90625 278.214844 95.730469 C 277.707031 95.554688 277.191406 95.429688 276.660156 95.355469 C 276.128906 95.277344 275.597656 95.253906 275.0625 95.28125 C 274.527344 95.308594 274 95.382812 273.480469 95.511719 C 272.960938 95.640625 272.460938 95.816406 271.972656 96.039062 C 271.488281 96.265625 271.027344 96.53125 270.59375 96.84375 C 270.164062 97.167969 269.765625 97.527344 269.40625 97.929688 C 269.046875 98.328125 268.730469 98.761719 268.457031 99.222656 C 268.183594 99.683594 267.957031 100.171875 267.777344 100.675781 C 267.601562 101.183594 267.472656 101.703125 267.398438 102.238281 C 267.320312 102.769531 267.296875 103.304688 267.328125 103.839844 C 267.355469 104.375 267.4375 104.90625 267.570312 105.425781 C 267.703125 105.945312 267.886719 106.449219 268.121094 106.933594 C 268.351562 107.417969 268.628906 107.875 268.953125 108.304688 C 270.964844 110.929688 272.863281 113.625 274.652344 116.402344 C 276.441406 119.179688 278.113281 122.023438 279.671875 124.9375 C 281.226562 127.851562 282.664062 130.824219 283.976562 133.851562 C 285.289062 136.882812 286.476562 139.960938 287.539062 143.089844 C 288.597656 146.214844 289.53125 149.382812 290.332031 152.585938 C 291.132812 155.789062 291.804688 159.019531 292.34375 162.277344 C 292.878906 165.535156 293.285156 168.808594 293.554688 172.101562 C 293.824219 175.390625 293.957031 178.6875 293.957031 181.992188 C 293.957031 185.292969 293.824219 188.589844 293.554688 191.878906 C 293.285156 195.171875 292.878906 198.445312 292.34375 201.703125 C 291.804688 204.960938 291.132812 208.191406 290.332031 211.398438 C 289.53125 214.601562 288.597656 217.765625 287.539062 220.894531 C 286.476562 224.019531 285.289062 227.097656 283.976562 230.128906 C 282.664062 233.160156 281.226562 236.132812 279.671875 239.042969 C 278.113281 241.957031 276.441406 244.800781 274.652344 247.578125 C 272.863281 250.355469 270.964844 253.054688 268.953125 255.675781 C 268.640625 256.109375 268.371094 256.570312 268.148438 257.054688 C 267.921875 257.539062 267.746094 258.042969 267.621094 258.5625 C 267.492188 259.082031 267.414062 259.609375 267.386719 260.140625 C 267.363281 260.675781 267.386719 261.207031 267.460938 261.738281 C 267.539062 262.265625 267.664062 262.78125 267.839844 263.289062 C 268.011719 263.792969 268.234375 264.277344 268.503906 264.742188 C 268.769531 265.203125 269.082031 265.636719 269.433594 266.039062 C 269.785156 266.441406 270.171875 266.808594 270.59375 267.136719 C 272.035156 268.269531 273.675781 268.8125 275.511719 268.773438 C 276.796875 268.761719 278.015625 268.46875 279.167969 267.894531 C 280.316406 267.320312 281.285156 266.519531 282.066406 265.5 C 284.324219 262.53125 286.460938 259.476562 288.472656 256.335938 C 290.484375 253.195312 292.363281 249.976562 294.113281 246.683594 C 295.859375 243.390625 297.472656 240.03125 298.949219 236.605469 C 300.421875 233.183594 301.757812 229.703125 302.949219 226.167969 C 304.140625 222.636719 305.1875 219.0625 306.089844 215.441406 C 306.988281 211.824219 307.742188 208.175781 308.347656 204.496094 C 308.949219 200.816406 309.402344 197.121094 309.707031 193.402344 C 310.011719 189.6875 310.160156 185.964844 310.160156 182.238281 C 310.160156 178.507812 310.011719 174.785156 309.707031 171.070312 C 309.402344 167.355469 308.949219 163.65625 308.347656 159.976562 C 307.742188 156.296875 306.988281 152.648438 306.089844 149.03125 C 305.1875 145.414062 304.140625 141.835938 302.949219 138.304688 C 301.757812 134.769531 300.421875 131.292969 298.949219 127.867188 C 297.472656 124.441406 295.859375 121.082031 294.113281 117.789062 C 292.363281 114.496094 290.484375 111.277344 288.472656 108.136719 C 286.460938 104.996094 284.324219 101.941406 282.066406 98.972656 Z M 282.066406 98.480469 " fill-opacity="1" fill-rule="nonzero" />
	<path fill="white" d="M 318.292969 65.40625 C 317.941406 65.035156 317.5625 64.703125 317.152344 64.402344 C 316.738281 64.105469 316.304688 63.847656 315.84375 63.628906 C 315.382812 63.410156 314.90625 63.238281 314.414062 63.109375 C 313.921875 62.976562 313.421875 62.894531 312.914062 62.859375 C 312.410156 62.824219 311.902344 62.832031 311.394531 62.890625 C 310.890625 62.949219 310.394531 63.054688 309.910156 63.203125 C 309.421875 63.355469 308.953125 63.546875 308.503906 63.785156 C 308.054688 64.023438 307.628906 64.300781 307.230469 64.617188 C 306.832031 64.933594 306.46875 65.28125 306.136719 65.667969 C 305.800781 66.050781 305.507812 66.464844 305.25 66.902344 C 304.996094 67.34375 304.78125 67.800781 304.609375 68.28125 C 304.441406 68.757812 304.316406 69.25 304.234375 69.75 C 304.15625 70.253906 304.125 70.757812 304.140625 71.265625 C 304.15625 71.773438 304.214844 72.277344 304.324219 72.773438 C 304.433594 73.269531 304.585938 73.753906 304.785156 74.222656 C 304.984375 74.6875 305.226562 75.132812 305.507812 75.558594 C 307.003906 77.429688 308.464844 79.328125 309.882812 81.261719 C 311.300781 83.191406 312.679688 85.152344 314.015625 87.140625 C 315.347656 89.132812 316.640625 91.148438 317.894531 93.191406 C 319.144531 95.238281 320.351562 97.304688 321.511719 99.402344 C 322.675781 101.496094 323.792969 103.613281 324.867188 105.757812 C 325.941406 107.898438 326.96875 110.0625 327.953125 112.25 C 328.933594 114.433594 329.871094 116.640625 330.757812 118.863281 C 331.648438 121.089844 332.488281 123.332031 333.28125 125.589844 C 334.078125 127.851562 334.824219 130.128906 335.523438 132.417969 C 336.21875 134.710938 336.867188 137.015625 337.46875 139.335938 C 338.070312 141.65625 338.621094 143.988281 339.125 146.328125 C 339.625 148.671875 340.078125 151.023438 340.480469 153.386719 C 340.882812 155.746094 341.238281 158.117188 341.539062 160.492188 C 341.84375 162.867188 342.09375 165.25 342.296875 167.636719 C 342.5 170.023438 342.652344 172.414062 342.753906 174.808594 C 342.851562 177.199219 342.902344 179.59375 342.902344 181.992188 C 342.902344 184.386719 342.851562 186.78125 342.753906 189.175781 C 342.652344 191.566406 342.5 193.957031 342.296875 196.34375 C 342.09375 198.734375 341.84375 201.113281 341.539062 203.492188 C 341.238281 205.867188 340.882812 208.234375 340.480469 210.597656 C 340.078125 212.957031 339.625 215.3125 339.125 217.652344 C 338.621094 219.996094 338.070312 222.328125 337.46875 224.644531 C 336.867188 226.964844 336.21875 229.269531 335.523438 231.5625 C 334.824219 233.855469 334.078125 236.128906 333.28125 238.390625 C 332.488281 240.652344 331.648438 242.894531 330.757812 245.117188 C 329.871094 247.34375 328.933594 249.546875 327.953125 251.734375 C 326.96875 253.917969 325.941406 256.082031 324.867188 258.226562 C 323.792969 260.367188 322.675781 262.484375 321.511719 264.582031 C 320.351562 266.675781 319.144531 268.746094 317.894531 270.789062 C 316.640625 272.832031 315.347656 274.851562 314.015625 276.839844 C 312.679688 278.828125 311.300781 280.789062 309.882812 282.722656 C 308.464844 284.652344 307.003906 286.554688 305.507812 288.425781 C 305.175781 288.84375 304.886719 289.292969 304.644531 289.769531 C 304.398438 290.246094 304.203125 290.742188 304.058594 291.257812 C 303.910156 291.769531 303.816406 292.292969 303.773438 292.828125 C 303.730469 293.359375 303.738281 293.894531 303.796875 294.425781 C 303.859375 294.957031 303.96875 295.476562 304.132812 295.988281 C 304.296875 296.496094 304.507812 296.984375 304.765625 297.453125 C 305.027344 297.921875 305.328125 298.363281 305.671875 298.769531 C 306.019531 299.179688 306.398438 299.550781 306.816406 299.886719 C 308.308594 301.0625 310 301.664062 311.898438 301.6875 C 313.195312 301.652344 314.410156 301.3125 315.542969 300.675781 C 316.671875 300.039062 317.589844 299.175781 318.292969 298.085938 C 319.929688 296.039062 321.519531 293.960938 323.070312 291.847656 C 324.617188 289.738281 326.121094 287.59375 327.578125 285.417969 C 329.039062 283.242188 330.449219 281.039062 331.8125 278.804688 C 333.179688 276.566406 334.496094 274.304688 335.765625 272.015625 C 337.035156 269.726562 338.257812 267.410156 339.429688 265.066406 C 340.601562 262.726562 341.722656 260.359375 342.792969 257.972656 C 343.867188 255.582031 344.886719 253.171875 345.859375 250.738281 C 346.828125 248.308594 347.746094 245.855469 348.613281 243.386719 C 349.480469 240.914062 350.296875 238.425781 351.058594 235.921875 C 351.820312 233.417969 352.527344 230.898438 353.183594 228.363281 C 353.839844 225.828125 354.441406 223.28125 354.988281 220.71875 C 355.539062 218.160156 356.03125 215.589844 356.472656 213.007812 C 356.910156 210.429688 357.296875 207.839844 357.625 205.242188 C 357.957031 202.644531 358.230469 200.042969 358.453125 197.433594 C 358.671875 194.824219 358.839844 192.210938 358.949219 189.597656 C 359.058594 186.980469 359.113281 184.363281 359.113281 181.746094 C 359.113281 179.128906 359.058594 176.511719 358.949219 173.894531 C 358.839844 171.277344 358.671875 168.667969 358.453125 166.058594 C 358.230469 163.449219 357.957031 160.847656 357.625 158.25 C 357.296875 155.652344 356.910156 153.0625 356.472656 150.480469 C 356.03125 147.902344 355.539062 145.332031 354.988281 142.769531 C 354.441406 140.210938 353.839844 137.664062 353.183594 135.128906 C 352.527344 132.59375 351.820312 130.074219 351.058594 127.570312 C 350.296875 125.0625 349.480469 122.574219 348.613281 120.105469 C 347.746094 117.636719 346.828125 115.183594 345.859375 112.75 C 344.886719 110.320312 343.867188 107.910156 342.792969 105.519531 C 341.722656 103.132812 340.601562 100.765625 339.429688 98.425781 C 338.257812 96.082031 337.035156 93.765625 335.765625 91.476562 C 334.496094 89.1875 333.179688 86.921875 331.8125 84.6875 C 330.449219 82.453125 329.039062 80.25 327.578125 78.074219 C 326.121094 75.898438 324.617188 73.753906 323.070312 71.640625 C 321.519531 69.53125 319.929688 67.449219 318.292969 65.40625 Z M 318.292969 65.40625 " fill-opacity="1" fill-rule="nonzero" />
</svg>
