<svg width="77" height="71" viewBox="0 0 77 71" fill="none" xmlns="http://www.w3.org/2000/svg">
<g opacity="0.1" clip-path="url(#clip0_8052_97)">
<path d="M1.12144 69.2371L2.83743 55.9381C7.0321 56.2241 10.2734 55.4614 12.5614 53.6501C14.8494 51.8387 16.3748 49.3124 17.1374 46.0711C17.9001 42.8297 18.0431 39.1594 17.5664 35.0601H1.12144V0.597056H32.7244V37.9201C32.7244 49.1694 30.0551 57.6541 24.7164 63.3741C19.2824 69.1894 11.4174 71.1437 1.12144 69.2371ZM45.1654 69.2371L46.8814 55.9381C51.0761 56.2241 54.3174 55.4614 56.6054 53.6501C58.8934 51.8387 60.4188 49.3124 61.1814 46.0711C61.9441 42.8297 62.0871 39.1594 61.6104 35.0601H45.1654V0.597056H76.7684V37.9201C76.7684 49.1694 74.0991 57.6541 68.7604 63.3741C63.3264 69.1894 55.4614 71.1437 45.1654 69.2371Z" fill="white"/>
</g>
<defs>
<clipPath id="clip0_8052_97">
<rect width="76" height="70" fill="white" transform="matrix(1 0 0 -1 0.945312 70.6023)"/>
</clipPath>
</defs>
</svg>
