<svg width="88" height="16" viewBox="0 0 88 16" fill="none" xmlns="http://www.w3.org/2000/svg">
<path d="M8.71918 0.0544434L10.4645 5.42605L16.1126 5.42605L11.5432 8.74589L13.2885 14.1175L8.71918 10.7977L4.14981 14.1175L5.89516 8.74589L1.32579 5.42605L6.97384 5.42605L8.71918 0.0544434Z" fill="#F16530"/>
<path d="M26.4614 0.0544434L28.2067 5.42605L33.8547 5.42605L29.2854 8.74589L31.0307 14.1175L26.4614 10.7977L21.892 14.1175L23.6373 8.74589L19.068 5.42605L24.716 5.42605L26.4614 0.0544434Z" fill="#F16530"/>
<path d="M44.1996 0.0544434L45.945 5.42605L51.593 5.42605L47.0237 8.74589L48.769 14.1175L44.1996 10.7977L39.6303 14.1175L41.3756 8.74589L36.8063 5.42605L42.4543 5.42605L44.1996 0.0544434Z" fill="#F16530"/>
<path d="M61.9418 0.0544434L63.6872 5.42605L69.3352 5.42605L64.7659 8.74589L66.5112 14.1175L61.9418 10.7977L57.3725 14.1175L59.1178 8.74589L54.5484 5.42605L60.1965 5.42605L61.9418 0.0544434Z" fill="#F16530"/>
<path d="M79.6801 0.0544434L81.4255 5.42605L87.0735 5.42605L82.5041 8.74589L84.2495 14.1175L79.6801 10.7977L75.1108 14.1175L76.8561 8.74589L72.2867 5.42605L77.9348 5.42605L79.6801 0.0544434Z" fill="#F16530"/>
</svg>
