<svg width="51" height="51" viewBox="0 0 51 51" fill="none" xmlns="http://www.w3.org/2000/svg">
<g clip-path="url(#clip0_8052_151)">
<path d="M26.1073 25.8904C14.6133 25.8903 7.16846 34.1626 4.88281 38.2988C7.39134 42.235 15.1482 50.1075 26.1073 50.1075C37.0664 50.1075 44.7049 42.235 47.1542 38.2988C44.9278 34.1627 37.6013 25.8904 26.1073 25.8904Z" stroke="white" stroke-width="1.5"/>
<path d="M25.9572 50.1658C26.0833 42.0985 21.4067 25.9902 1.69141 26.0946C2.13478 18.0538 7.60866 1.97217 25.9572 1.97217C44.3058 1.97217 49.7622 18.0538 50.1969 26.0946C42.7299 25.7127 25.9572 32.1594 25.9572 50.1658Z" stroke="white" stroke-width="1.5"/>
<path d="M25.9609 50.1665V1.95874" stroke="white" stroke-width="1.5"/>
</g>
<defs>
<clipPath id="clip0_8052_151">
<rect width="50" height="50" fill="white" transform="translate(0.945312 0.955078)"/>
</clipPath>
</defs>
</svg>
