<svg width="28" height="27" viewBox="0 0 28 27" fill="none" xmlns="http://www.w3.org/2000/svg">
<path d="M2.62974 4.0408H23.4899C25.3793 4.0408 26.7435 5.78211 26.2252 7.53439L23.9574 15.2126C23.6078 16.3918 22.4917 17.2035 21.222 17.2035H8.66538C7.39436 17.2035 6.2769 16.3904 5.92864 15.2126L2.62974 4.0408ZM2.62974 4.0408L1.65625 0.750122M20.1663 25.4302C20.7118 25.4302 21.2349 25.2135 21.6206 24.8278C22.0063 24.4421 22.223 23.919 22.223 23.3735C22.223 22.828 22.0063 22.3049 21.6206 21.9192C21.2349 21.5335 20.7118 21.3168 20.1663 21.3168C19.6208 21.3168 19.0977 21.5335 18.712 21.9192C18.3263 22.3049 18.1096 22.828 18.1096 23.3735C18.1096 23.919 18.3263 24.4421 18.712 24.8278C19.0977 25.2135 19.6208 25.4302 20.1663 25.4302ZM9.19738 25.4302C9.74284 25.4302 10.266 25.2135 10.6517 24.8278C11.0374 24.4421 11.254 23.919 11.254 23.3735C11.254 22.828 11.0374 22.3049 10.6517 21.9192C10.266 21.5335 9.74284 21.3168 9.19738 21.3168C8.65191 21.3168 8.12879 21.5335 7.74309 21.9192C7.35739 22.3049 7.14071 22.828 7.14071 23.3735C7.14071 23.919 7.35739 24.4421 7.74309 24.8278C8.12879 25.2135 8.65191 25.4302 9.19738 25.4302Z" stroke="white" stroke-width="1.5" stroke-linecap="round" stroke-linejoin="round"/>
</svg>
