<svg width="50" height="50" viewBox="0 0 50 50" fill="none" xmlns="http://www.w3.org/2000/svg">
<circle opacity="0.1" cx="24.6358" cy="24.6358" r="24.6358" fill="#F16530"/>
<g clip-path="url(#clip0_8130_8)">
<path d="M24.744 24.4836C18.5829 24.4836 14.5923 28.9177 13.3672 31.1348C14.7118 33.2447 18.8696 37.4646 24.744 37.4646C30.6183 37.4646 34.7127 33.2447 36.0256 31.1348C34.8322 28.9178 30.905 24.4837 24.744 24.4836Z" stroke="#F16530" stroke-width="1.3"/>
<path d="M24.6633 37.4959C24.7309 33.1717 22.2241 24.5373 11.6562 24.5932C11.8939 20.2832 14.828 11.6631 24.6633 11.6631C34.4985 11.6631 37.4233 20.2832 37.6563 24.5932C33.6538 24.3885 24.6633 27.8441 24.6633 37.4959Z" stroke="#F16530" stroke-width="1.3"/>
<path d="M24.6641 37.4962V11.6558" stroke="#F16530" stroke-width="1.3"/>
</g>
<defs>
<clipPath id="clip0_8130_8">
<rect width="28" height="29" fill="white" transform="translate(10.6367 10.1357)"/>
</clipPath>
</defs>
</svg>
