<svg width="128" height="29" viewBox="0 0 128 29" fill="none" xmlns="http://www.w3.org/2000/svg">
<path d="M44.2566 1.06226L42.4207 1.3357C42.1993 1.36174 42.03 1.41382 41.9128 1.49195C41.7956 1.57008 41.737 1.68727 41.737 1.84352V27.0784C41.737 27.3518 41.8152 27.5471 41.9714 27.6643C42.1407 27.7815 42.3816 27.8401 42.6941 27.8401H47.5965C48.2215 27.8401 48.7945 27.7294 49.3153 27.5081C49.8362 27.2867 50.3375 26.8896 50.8192 26.3166C51.314 25.7307 51.8154 24.9038 52.3232 23.8361L53.9443 20.3595C53.9834 20.2944 54.0159 20.2488 54.042 20.2228C54.068 20.1967 54.1006 20.1902 54.1396 20.2032C54.1917 20.2032 54.2243 20.2293 54.2373 20.2814C54.2503 20.3204 54.2438 20.3855 54.2177 20.4767L52.4404 28.3674C52.4013 28.5237 52.3688 28.6214 52.3427 28.6604C52.3167 28.7125 52.2906 28.7385 52.2646 28.7385C52.1734 28.7385 52.0432 28.693 51.874 28.6018C51.7177 28.5107 51.5028 28.413 51.2294 28.3089C50.969 28.2177 50.6239 28.1721 50.1942 28.1721H35.1744C35.1223 28.1721 35.0833 28.1591 35.0572 28.1331C35.0312 28.107 35.0182 28.081 35.0182 28.0549C35.0182 27.9898 35.0833 27.9508 35.2135 27.9377L37.0299 27.6643C37.2643 27.6252 37.4336 27.5732 37.5378 27.5081C37.6549 27.4299 37.7135 27.3127 37.7135 27.1565V1.84352C37.7135 1.68727 37.6549 1.57008 37.5378 1.49195C37.4336 1.41382 37.2643 1.36174 37.0299 1.3357L35.2135 1.06226C35.0833 1.04923 35.0182 1.01017 35.0182 0.945065C35.0182 0.906002 35.0312 0.879959 35.0572 0.866937C35.0833 0.840895 35.1223 0.827875 35.1744 0.827875H44.2762C44.3282 0.827875 44.3673 0.840895 44.3933 0.866937C44.4324 0.879959 44.4519 0.906002 44.4519 0.945065C44.4519 1.01017 44.3868 1.04923 44.2566 1.06226Z" fill="white"/>
<path d="M61.8207 14.0117H67.9146C68.9042 14.0117 69.6204 13.7904 70.0631 13.3476C70.5188 12.8919 70.7857 12.0651 70.8639 10.8671C70.8639 10.802 70.8704 10.763 70.8834 10.7499C70.9094 10.7239 70.9355 10.7109 70.9615 10.7109C71.0396 10.6848 71.0982 10.7499 71.1373 10.9062L73.0514 17.1563C73.0774 17.2214 73.0774 17.2735 73.0514 17.3126C73.0384 17.3516 73.0189 17.3777 72.9928 17.3907C72.9668 17.3907 72.9342 17.3907 72.8951 17.3907C72.8691 17.3777 72.8366 17.3516 72.7975 17.3126C72.2766 16.5183 71.8079 15.9128 71.3912 15.4961C70.9876 15.0664 70.5514 14.7669 70.0826 14.5977C69.6138 14.4284 69.0474 14.3438 68.3833 14.3438H61.8207V14.0117ZM55.9612 0.945065C55.9612 0.906002 55.9743 0.879959 56.0003 0.866937C56.0263 0.840895 56.0654 0.827875 56.1175 0.827875H72.0553C72.3287 0.827875 72.5761 0.782301 72.7975 0.691154C73.0319 0.586985 73.2207 0.489327 73.3639 0.39818C73.5202 0.307033 73.6243 0.261459 73.6764 0.261459C73.7025 0.261459 73.722 0.28099 73.735 0.320052C73.761 0.346096 73.7936 0.443754 73.8327 0.613028L75.4733 6.99986C75.4994 7.06497 75.5059 7.11705 75.4929 7.15612C75.4798 7.18216 75.4538 7.19518 75.4147 7.19518C75.3887 7.2082 75.3626 7.2082 75.3366 7.19518C75.3106 7.18216 75.278 7.14961 75.2389 7.09752C74.5488 5.88656 73.9238 4.89696 73.3639 4.12872C72.817 3.36047 72.2962 2.7615 71.8014 2.33181C71.3066 1.88909 70.8183 1.5831 70.3365 1.41382C69.8547 1.24455 69.3404 1.15991 68.7935 1.15991H62.6801V27.0198C62.6801 27.2932 62.7582 27.5015 62.9145 27.6448C63.0838 27.775 63.3247 27.8401 63.6372 27.8401H68.9888C69.7571 27.8401 70.4602 27.6578 71.0982 27.2932C71.7363 26.9286 72.4199 26.2125 73.1491 25.1447C73.8782 24.064 74.7507 22.4689 75.7663 20.3595C75.8054 20.2944 75.8379 20.2488 75.864 20.2228C75.89 20.1967 75.9225 20.1902 75.9616 20.2032C76.0007 20.2032 76.0267 20.2293 76.0397 20.2814C76.0528 20.3204 76.0462 20.3855 76.0202 20.4767L74.0866 28.3674C74.0475 28.5237 74.015 28.6214 73.9889 28.6604C73.9759 28.7125 73.9499 28.7385 73.9108 28.7385C73.8196 28.7385 73.6894 28.693 73.5202 28.6018C73.3639 28.5107 73.1491 28.413 72.8756 28.3089C72.6152 28.2177 72.2701 28.1721 71.8404 28.1721H56.1175C56.0654 28.1721 56.0263 28.1591 56.0003 28.1331C55.9743 28.107 55.9612 28.081 55.9612 28.0549C55.9612 27.9898 56.0264 27.9508 56.1566 27.9377L57.973 27.6643C58.2074 27.6252 58.3767 27.5732 58.4808 27.5081C58.598 27.4299 58.6566 27.3127 58.6566 27.1565V1.84352C58.6566 1.68727 58.598 1.57008 58.4808 1.49195C58.3767 1.41382 58.2074 1.36174 57.973 1.3357L56.1566 1.06226C56.0264 1.04923 55.9612 1.01017 55.9612 0.945065Z" fill="white"/>
<path d="M93.9197 0.945065C93.9197 0.906002 93.9327 0.879959 93.9588 0.866937C93.9848 0.840895 94.0109 0.827875 94.0369 0.827875H100.248C100.287 0.827875 100.313 0.840895 100.326 0.866937C100.352 0.879959 100.365 0.906002 100.365 0.945065C100.365 0.971107 100.352 0.997149 100.326 1.02319C100.313 1.03621 100.281 1.04923 100.228 1.06226L99.33 1.3357C98.9133 1.47893 98.5422 1.75237 98.2167 2.15603C97.8911 2.54666 97.6177 3.11307 97.3963 3.85528L90.5603 25.9065C90.5212 26.0888 90.4887 26.2711 90.4626 26.4533C90.4496 26.6226 90.4431 26.8179 90.4431 27.0393V27.9573C90.4431 28.0224 90.4301 28.0745 90.404 28.1135C90.391 28.1526 90.3454 28.1721 90.2673 28.1721H86.7907C86.7256 28.1721 86.6735 28.1526 86.6344 28.1135C86.6084 28.0745 86.5954 28.0224 86.5954 27.9573V27.0393C86.5954 26.883 86.5758 26.7203 86.5368 26.551C86.4977 26.3817 86.4456 26.1864 86.3805 25.9651L78.6655 2.05837C78.5874 1.82399 78.5158 1.65471 78.4507 1.55055C78.3856 1.44638 78.2814 1.37476 78.1382 1.3357L77.0444 1.08179C76.9142 1.0297 76.8491 0.984129 76.8491 0.945065C76.8491 0.906002 76.8621 0.879959 76.8881 0.866937C76.9142 0.840895 76.9467 0.827875 76.9858 0.827875H85.5797C85.6318 0.827875 85.6709 0.840895 85.6969 0.866937C85.7229 0.879959 85.736 0.906002 85.736 0.945065C85.736 0.971107 85.7164 0.997149 85.6774 1.02319C85.6383 1.03621 85.5927 1.04923 85.5406 1.06226L83.4703 1.31616C83.1969 1.35523 83.0276 1.45289 82.9625 1.60914C82.9104 1.75237 82.9234 1.9542 83.0015 2.21462L90.4431 25.6916L89.9353 26.9026L97.0643 3.87481C97.2596 3.23677 97.2466 2.6964 97.0252 2.25368C96.8169 1.79794 96.2765 1.47242 95.4041 1.2771L94.076 1.06226C94.0239 1.04923 93.9848 1.03621 93.9588 1.02319C93.9327 0.997149 93.9197 0.971107 93.9197 0.945065Z" fill="white"/>
<path d="M114.305 0.437243C116.206 0.437243 117.944 0.788812 119.52 1.49195C121.095 2.18207 122.456 3.15865 123.602 4.42169C124.761 5.67171 125.652 7.14961 126.277 8.85537C126.902 10.5611 127.215 12.4231 127.215 14.4414C127.215 16.5638 126.896 18.4975 126.258 20.2423C125.633 21.9741 124.734 23.4585 123.563 24.6955C122.404 25.9325 121.03 26.8896 119.441 27.5667C117.853 28.2307 116.108 28.5628 114.207 28.5628C112.306 28.5628 110.561 28.2177 108.972 27.5276C107.397 26.8375 106.03 25.8609 104.871 24.5978C103.725 23.3218 102.84 21.8244 102.215 20.1056C101.59 18.3868 101.277 16.4922 101.277 14.4219C101.277 12.3255 101.596 10.4179 102.234 8.69911C102.872 6.98033 103.771 5.50895 104.929 4.28497C106.101 3.06099 107.482 2.11696 109.07 1.45289C110.659 0.775791 112.404 0.437243 114.305 0.437243ZM123.094 17.4493C123.094 15.6003 122.925 13.8489 122.586 12.1953C122.26 10.5416 121.798 9.02464 121.199 7.64441C120.6 6.26417 119.884 5.07274 119.051 4.07012C118.217 3.05448 117.306 2.27321 116.316 1.72633C115.327 1.17944 114.272 0.906002 113.152 0.906002C111.629 0.906002 110.281 1.30966 109.109 2.11696C107.95 2.92427 107.039 4.10918 106.375 5.67171C105.724 7.22122 105.398 9.12881 105.398 11.3945C105.398 13.2565 105.561 15.0274 105.886 16.7071C106.212 18.3868 106.674 19.9233 107.273 21.3165C107.885 22.6968 108.601 23.8947 109.422 24.9104C110.255 25.926 111.173 26.7138 112.176 27.2737C113.178 27.8206 114.24 28.094 115.359 28.094C116.896 28.094 118.243 27.6969 119.402 26.9026C120.561 26.0953 121.466 24.9038 122.117 23.3283C122.768 21.7527 123.094 19.7931 123.094 17.4493Z" fill="white"/>
<path d="M0.785004 13.4061V0.774368L7.10089 7.09025L0.785004 13.4061Z" fill="#F16530"/>
<path d="M0.881463 28.1483V18.0931L18.9153 0.824385H29.2984L0.881463 28.1483Z" fill="white"/>
<path d="M12.3815 21.8193L17.5369 16.8967L29.5773 28.1721H18.9338L12.3815 21.8193Z" fill="#F16530"/>
</svg>
