<svg width="18" height="17" viewBox="0 0 18 17" fill="none" xmlns="http://www.w3.org/2000/svg">
<path d="M5.21068 9.48325C4.28735 7.59825 5.54402 3.92658 9.77068 4.52658C14.4265 5.18825 13.5882 12.4249 9.70652 12.1416C8.47818 12.0524 8.01402 11.0349 7.89235 9.99491M7.89235 9.99491C7.80068 9.20658 7.90652 8.40575 8.02568 7.98658C8.22902 7.27241 8.56652 7.36991 8.31985 8.31408C8.19985 8.77408 8.05318 9.35158 7.89235 9.99491ZM7.89235 9.99491C7.42972 11.8558 6.97693 13.7192 6.53402 15.5849M16.5 8.5C16.5 12.6421 13.1421 16 9 16C4.85786 16 1.5 12.6421 1.5 8.5C1.5 4.35786 4.85786 1 9 1C13.1421 1 16.5 4.35786 16.5 8.5Z" stroke="white" stroke-width="1.2" stroke-linecap="round" stroke-linejoin="round"/>
</svg>
