<svg width="15" height="16" viewBox="0 0 15 16" fill="none" xmlns="http://www.w3.org/2000/svg">
<path d="M0.856154 0.350098H14.1438C14.5943 0.350098 15 0.755834 15 1.20625V14.4939C15 14.9444 14.5943 15.3501 14.1438 15.3501H0.856154C0.405736 15.3501 0 14.9444 0 14.4939V1.20625C0 0.755834 0.405736 0.350098 0.856154 0.350098ZM10.6522 8.77255H12.7241L12.8142 6.79071H10.6522V5.32704C10.6522 4.76419 10.7646 4.44854 11.4853 4.44854H12.7465L12.7919 2.60147C12.7919 2.60147 12.229 2.51138 11.4183 2.51138C9.43644 2.51138 8.55794 3.75021 8.55794 5.07913V6.79071H7.09426V8.77255H8.55794V14.2677H10.6522V8.77255Z" fill="white"/>
</svg>
