<svg width="16" height="16" viewBox="0 0 16 16" fill="none" xmlns="http://www.w3.org/2000/svg">
<path d="M14.6327 0.785525H2.11824C1.95694 0.777969 1.79572 0.802295 1.64384 0.857125C1.49195 0.911954 1.35237 0.996199 1.23307 1.10503C1.11378 1.21388 1.01713 1.34518 0.948649 1.49142C0.880171 1.63766 0.841202 1.79597 0.833984 1.95729V14.4999C0.843434 14.8375 0.981777 15.1587 1.2206 15.3975C1.45943 15.6363 1.78062 15.7747 2.11824 15.7842H14.6327C14.9609 15.7696 15.2703 15.6269 15.4947 15.3868C15.719 15.1467 15.8403 14.8284 15.8326 14.4999V1.95729C15.8353 1.80028 15.8059 1.64437 15.7462 1.49913C15.6865 1.3539 15.5977 1.22239 15.4853 1.11266C15.373 1.00295 15.2394 0.917344 15.0928 0.86109C14.9462 0.804836 14.7896 0.779122 14.6327 0.785525ZM5.52106 13.2907H3.33688V6.6069H5.52106V13.2907ZM4.48053 5.59446C4.32811 5.59977 4.17624 5.57351 4.03447 5.51732C3.89268 5.46113 3.76405 5.37623 3.65666 5.26795C3.54926 5.15967 3.46541 5.03035 3.41038 4.88812C3.35535 4.74588 3.33033 4.59381 3.33688 4.44144C3.33014 4.28742 3.35567 4.13371 3.41183 3.99014C3.46799 3.84657 3.55354 3.71632 3.66298 3.60776C3.77243 3.49919 3.90336 3.4147 4.04737 3.35971C4.1914 3.30471 4.34532 3.28043 4.49927 3.28842C4.65169 3.28312 4.80356 3.30937 4.94533 3.36556C5.08712 3.42175 5.21575 3.50665 5.32314 3.61493C5.43054 3.72321 5.51439 3.85253 5.56942 3.99476C5.62445 4.137 5.64947 4.28907 5.64292 4.44144C5.64966 4.59546 5.62413 4.74917 5.56797 4.89274C5.51181 5.03631 5.42626 5.16656 5.31682 5.27512C5.20737 5.38369 5.07644 5.46818 4.93243 5.52317C4.7884 5.57817 4.63448 5.60245 4.48053 5.59446ZM13.3391 13.2907H11.1455V9.63474C11.1455 8.76295 10.8362 8.163 10.0581 8.163C9.81647 8.16507 9.58128 8.24184 9.38498 8.38283C9.18859 8.52381 9.04067 8.72208 8.96137 8.95043C8.90043 9.1216 8.87494 9.30337 8.88637 9.48476V13.2907H6.73032V6.6069H8.88637V7.54431C9.07807 7.19212 9.36333 6.89984 9.71073 6.69961C10.0581 6.49947 10.4541 6.39924 10.8549 6.41001C12.2704 6.41001 13.3391 7.34745 13.3391 9.34414V13.2907Z" fill="white"/>
</svg>
