<svg width="18" height="17" viewBox="0 0 18 17" fill="none" xmlns="http://www.w3.org/2000/svg">
<path d="M16.5006 8.50006C15.4064 8.50006 12.3872 8.08756 9.68556 9.27339C6.75056 10.5626 4.62556 12.5617 3.69889 13.8051M16.5006 8.50006C16.5006 9.48497 16.306 10.4602 15.9291 11.3701C15.5522 12.2801 14.9997 13.1069 14.3033 13.8033C13.6069 14.4997 12.7801 15.0522 11.8701 15.4291C10.9602 15.806 9.98491 16 9 16C7.01088 16 5.10322 15.2098 3.6967 13.8033C2.29018 12.3968 1.5 10.4891 1.5 8.5C1.5 6.51088 2.29018 4.60322 3.6967 3.1967C5.10322 1.79018 7.01088 1 9 1C9.98491 1 10.9602 1.19399 11.8701 1.5709C12.7801 1.94781 13.6069 2.50026 14.3033 3.1967C14.9997 3.89314 15.5522 4.71993 15.9291 5.62987C16.306 6.53982 16.5006 7.51514 16.5006 8.50006ZM6.1875 1.54504C7.36167 2.62838 9.9225 5.38671 10.875 8.12504C11.8275 10.8634 12.18 14.23 12.3975 15.1884M1.55859 7.5624C2.97526 7.6474 6.72526 7.7249 9.12526 6.6999C11.5253 5.6749 13.5903 3.7899 14.2986 3.19157" stroke="white" stroke-width="1.2" stroke-linecap="round" stroke-linejoin="round"/>
</svg>
