<svg width="21" height="25" viewBox="0 0 21 25" fill="none" xmlns="http://www.w3.org/2000/svg">
<path d="M19.7945 10.5422C19.7945 17.5422 10.368 23.5422 10.368 23.5422C10.368 23.5422 0.941406 17.5422 0.941406 10.5422C0.941406 8.15529 1.93456 5.8661 3.70238 4.17828C5.47021 2.49045 7.86789 1.54224 10.368 1.54224C12.868 1.54224 15.2657 2.49045 17.0336 4.17828C18.8014 5.8661 19.7945 8.15529 19.7945 10.5422Z" stroke="#F16530" stroke-width="1.5" stroke-linecap="round" stroke-linejoin="round"/>
<path d="M10.368 13.5422C12.1034 13.5422 13.5102 12.1991 13.5102 10.5422C13.5102 8.88538 12.1034 7.54224 10.368 7.54224C8.63259 7.54224 7.22578 8.88538 7.22578 10.5422C7.22578 12.1991 8.63259 13.5422 10.368 13.5422Z" stroke="#F16530" stroke-width="1.5" stroke-linecap="round" stroke-linejoin="round"/>
</svg>
