<svg width="85" height="86" viewBox="0 0 85 86" fill="none" xmlns="http://www.w3.org/2000/svg">
<path d="M37.4001 6.46874C36.9965 3.47456 39.3249 0.811279 42.3462 0.811279C45.3674 0.811279 47.6958 3.47448 47.2923 6.46862L42.3467 43.1708L37.4001 6.46874Z" fill="#F16530"/>
<path d="M37.4001 79.8462C36.9965 82.8404 39.3249 85.5037 42.3462 85.5037C45.3674 85.5037 47.6958 82.8405 47.2923 79.8463L42.3467 43.1441L37.4001 79.8462Z" fill="#F16530"/>
<path d="M64.7916 13.7172C66.6235 11.3146 70.1531 11.0778 72.2895 13.2142C74.4258 15.3505 74.1891 18.8801 71.7866 20.712L42.3371 43.1672L64.7916 13.7172Z" fill="#F16530"/>
<path d="M12.9059 65.6029C10.5034 67.4347 10.2666 70.9644 12.4029 73.1007C14.5392 75.2371 18.0688 75.0003 19.9007 72.5979L42.356 43.1484L12.9059 65.6029Z" fill="#F16530"/>
<path d="M79.0349 38.2114C82.0291 37.8078 84.6924 40.1362 84.6924 43.1575C84.6924 46.1787 82.0292 48.5071 79.035 48.1036L42.3329 43.158L79.0349 38.2114Z" fill="#F16530"/>
<path d="M5.65746 38.2114C2.66328 37.8078 1.32063e-07 40.1362 0 43.1575C-1.32061e-07 46.1787 2.6632 48.5071 5.65734 48.1036L42.3595 43.158L5.65746 38.2114Z" fill="#F16530"/>
<path d="M71.7865 65.6029C74.1891 67.4347 74.4258 70.9644 72.2895 73.1007C70.1532 75.2371 66.6236 75.0003 64.7917 72.5979L42.3364 43.1484L71.7865 65.6029Z" fill="#F16530"/>
<path d="M19.9008 13.7172C18.0689 11.3146 14.5393 11.0778 12.4029 13.2142C10.2666 15.3505 10.5034 18.8801 12.9058 20.712L42.3553 43.1672L19.9008 13.7172Z" fill="#F16530"/>
</svg>
