<svg width="23" height="22" viewBox="0 0 23 22" fill="none" xmlns="http://www.w3.org/2000/svg">
<path d="M16.6968 3.19336V0.976074M6.23225 3.19336V0.976074M1.29068 6.51929H21.6383M1 8.78535C1 6.44057 1 5.26763 1.50695 4.37185C1.96509 3.57267 2.67646 2.93202 3.53939 2.54148C4.53468 2.08472 5.83693 2.08472 8.44142 2.08472H14.4876C17.0921 2.08472 18.3943 2.08472 19.3896 2.54148C20.2652 2.94281 20.9756 3.5836 21.4221 4.37074C21.929 5.26874 21.929 6.44168 21.929 8.78646V14.2321C21.929 16.5769 21.929 17.7498 21.4221 18.6456C20.9639 19.4448 20.2526 20.0854 19.3896 20.476C18.3943 20.9316 17.0921 20.9316 14.4876 20.9316H8.44142C5.83693 20.9316 4.53468 20.9316 3.53939 20.4749C2.67663 20.0846 1.96528 19.4444 1.50695 18.6456C1 17.7476 1 16.5747 1 14.2299V8.78535Z" stroke="#F16530" stroke-width="1.2" stroke-linecap="round" stroke-linejoin="round"/>
</svg>
