<svg width="12" height="10" viewBox="0 0 12 10" fill="none" xmlns="http://www.w3.org/2000/svg">
<path d="M0.420572 4.83218C0.420563 5.01137 0.491738 5.18322 0.618441 5.30993C0.745144 5.43663 0.916995 5.5078 1.09619 5.5078L9.60897 5.50732L6.70889 8.40739C6.58581 8.53483 6.5177 8.70551 6.51923 8.88266C6.52076 9.05982 6.5918 9.22927 6.71707 9.35454C6.84233 9.4798 7.01179 9.55085 7.18895 9.55238C7.3661 9.55391 7.53678 9.4858 7.66422 9.36271L11.7184 5.30855C11.7809 5.24639 11.8305 5.17249 11.8644 5.09109C11.8982 5.00968 11.9157 4.92239 11.9157 4.83423L11.9157 4.83153C11.9157 4.7437 11.8981 4.65586 11.863 4.57343C11.8293 4.49152 11.7797 4.41712 11.7171 4.35453L7.66337 0.300825C7.53595 0.177756 7.36528 0.109663 7.18813 0.111213C7.01097 0.112762 6.84151 0.183829 6.71623 0.309108C6.59095 0.434388 6.51988 0.603854 6.51833 0.781009C6.51678 0.958164 6.58487 1.12883 6.70794 1.25626L9.60905 4.15601L1.09627 4.15648C0.917071 4.15649 0.745211 4.22769 0.618494 4.35441C0.491777 4.48112 0.420583 4.65298 0.420572 4.83218Z" fill="white"/>
</svg>
